# xmcd
# 
# Track frame offsets:
#     150
#     19680
#     36712
#     56485
# 
# Disc length: 954
# 
# Revision: 0
# Processed by: cddbd v1.5.2PL0 Copyright (c) Steve Scherf et al.
# Submitted via: fre:ac v1.0.17
# 
DISCID=3003b804
DTITLE=Shara Nelson - I Fell (So You Could Catch Me)
DYEAR=1996
DGENRE=Soul
TTITLE0=I Fell (Album Edit)
TTITLE1=Down That Road (Radio Edit)
TTITLE2=I Fell (Orchestral Version)
TTITLE3=Uptight (7" Edit)
EXTD=
EXTT0=
EXTT1=
EXTT2=
EXTT3=
PLAYORDER=
